<svg class="absolute" xmlns="http://www.w3.org/2000/svg" viewBox="0 0 1440 320">
        <path fill="#8EC3B0" fill-opacity="1"
            d="M0,192L10,202.7C20,213,40,235,60,208C80,181,100,107,120,80C140,53,160,75,180,96C200,117,220,139,240,149.3C260,160,280,160,300,154.7C320,149,340,139,360,154.7C380,171,400,213,420,224C440,235,460,213,480,176C500,139,520,85,540,69.3C560,53,580,75,600,106.7C620,139,640,181,660,181.3C680,181,700,139,720,117.3C740,96,760,96,780,106.7C800,117,820,139,840,170.7C860,203,880,245,900,245.3C920,245,940,203,960,165.3C980,128,1000,96,1020,101.3C1040,107,1060,149,1080,160C1100,171,1120,149,1140,128C1160,107,1180,85,1200,85.3C1220,85,1240,107,1260,101.3C1280,96,1300,64,1320,96C1340,128,1360,224,1380,240C1400,256,1420,192,1430,160L1440,128L1440,0L1430,0C1420,0,1400,0,1380,0C1360,0,1340,0,1320,0C1300,0,1280,0,1260,0C1240,0,1220,0,1200,0C1180,0,1160,0,1140,0C1120,0,1100,0,1080,0C1060,0,1040,0,1020,0C1000,0,980,0,960,0C940,0,920,0,900,0C880,0,860,0,840,0C820,0,800,0,780,0C760,0,740,0,720,0C700,0,680,0,660,0C640,0,620,0,600,0C580,0,560,0,540,0C520,0,500,0,480,0C460,0,440,0,420,0C400,0,380,0,360,0C340,0,320,0,300,0C280,0,260,0,240,0C220,0,200,0,180,0C160,0,140,0,120,0C100,0,80,0,60,0C40,0,20,0,10,0L0,0Z">
        </path>
    </svg>